<svg width="73" height="73" viewBox="0 0 73 73" fill="none" xmlns="http://www.w3.org/2000/svg">
<g clip-path="url(#clip0_115_636)">
<path d="M66.1562 13.6875C66.7613 13.6875 67.3415 13.9278 67.7693 14.3557C68.1972 14.7835 68.4375 15.3637 68.4375 15.9688V57.0312C68.4375 57.6363 68.1972 58.2165 67.7693 58.6443C67.3415 59.0722 66.7613 59.3125 66.1562 59.3125H6.84375C6.23872 59.3125 5.65848 59.0722 5.23066 58.6443C4.80285 58.2165 4.5625 57.6363 4.5625 57.0312V15.9688C4.5625 15.3637 4.80285 14.7835 5.23066 14.3557C5.65848 13.9278 6.23872 13.6875 6.84375 13.6875H66.1562ZM6.84375 9.125C5.02867 9.125 3.28794 9.84604 2.00449 11.1295C0.721036 12.4129 0 14.1537 0 15.9688L0 57.0312C0 58.8463 0.721036 60.5871 2.00449 61.8705C3.28794 63.154 5.02867 63.875 6.84375 63.875H66.1562C67.9713 63.875 69.7121 63.154 70.9955 61.8705C72.279 60.5871 73 58.8463 73 57.0312V15.9688C73 14.1537 72.279 12.4129 70.9955 11.1295C69.7121 9.84604 67.9713 9.125 66.1562 9.125H6.84375Z" fill="url(#paint0_linear_115_636)"/>
<path d="M22.8125 36.5C22.8125 35.895 23.0528 35.3147 23.4807 34.8869C23.9085 34.4591 24.4887 34.2188 25.0938 34.2188H57.0312C57.6363 34.2188 58.2165 34.4591 58.6443 34.8869C59.0722 35.3147 59.3125 35.895 59.3125 36.5C59.3125 37.105 59.0722 37.6853 58.6443 38.1131C58.2165 38.5409 57.6363 38.7812 57.0312 38.7812H25.0938C24.4887 38.7812 23.9085 38.5409 23.4807 38.1131C23.0528 37.6853 22.8125 37.105 22.8125 36.5ZM22.8125 25.0938C22.8125 24.4887 23.0528 23.9085 23.4807 23.4807C23.9085 23.0528 24.4887 22.8125 25.0938 22.8125H57.0312C57.6363 22.8125 58.2165 23.0528 58.6443 23.4807C59.0722 23.9085 59.3125 24.4887 59.3125 25.0938C59.3125 25.6988 59.0722 26.279 58.6443 26.7068C58.2165 27.1347 57.6363 27.375 57.0312 27.375H25.0938C24.4887 27.375 23.9085 27.1347 23.4807 26.7068C23.0528 26.279 22.8125 25.6988 22.8125 25.0938ZM22.8125 47.9062C22.8125 47.3012 23.0528 46.721 23.4807 46.2932C23.9085 45.8653 24.4887 45.625 25.0938 45.625H57.0312C57.6363 45.625 58.2165 45.8653 58.6443 46.2932C59.0722 46.721 59.3125 47.3012 59.3125 47.9062C59.3125 48.5113 59.0722 49.0915 58.6443 49.5193C58.2165 49.9472 57.6363 50.1875 57.0312 50.1875H25.0938C24.4887 50.1875 23.9085 49.9472 23.4807 49.5193C23.0528 49.0915 22.8125 48.5113 22.8125 47.9062ZM18.25 25.0938C18.25 25.6988 18.0097 26.279 17.5818 26.7068C17.154 27.1347 16.5738 27.375 15.9688 27.375C15.3637 27.375 14.7835 27.1347 14.3557 26.7068C13.9278 26.279 13.6875 25.6988 13.6875 25.0938C13.6875 24.4887 13.9278 23.9085 14.3557 23.4807C14.7835 23.0528 15.3637 22.8125 15.9688 22.8125C16.5738 22.8125 17.154 23.0528 17.5818 23.4807C18.0097 23.9085 18.25 24.4887 18.25 25.0938V25.0938ZM18.25 36.5C18.25 37.105 18.0097 37.6853 17.5818 38.1131C17.154 38.5409 16.5738 38.7812 15.9688 38.7812C15.3637 38.7812 14.7835 38.5409 14.3557 38.1131C13.9278 37.6853 13.6875 37.105 13.6875 36.5C13.6875 35.895 13.9278 35.3147 14.3557 34.8869C14.7835 34.4591 15.3637 34.2188 15.9688 34.2188C16.5738 34.2188 17.154 34.4591 17.5818 34.8869C18.0097 35.3147 18.25 35.895 18.25 36.5V36.5ZM18.25 47.9062C18.25 48.5113 18.0097 49.0915 17.5818 49.5193C17.154 49.9472 16.5738 50.1875 15.9688 50.1875C15.3637 50.1875 14.7835 49.9472 14.3557 49.5193C13.9278 49.0915 13.6875 48.5113 13.6875 47.9062C13.6875 47.3012 13.9278 46.721 14.3557 46.2932C14.7835 45.8653 15.3637 45.625 15.9688 45.625C16.5738 45.625 17.154 45.8653 17.5818 46.2932C18.0097 46.721 18.25 47.3012 18.25 47.9062V47.9062Z" fill="url(#paint1_linear_115_636)"/>
</g>
<defs>
<linearGradient id="paint0_linear_115_636" x1="36.5" y1="9.125" x2="36.5" y2="63.875" gradientUnits="userSpaceOnUse">
<stop stop-color="#FFD541"/>
<stop offset="1" stop-color="#F7F3AD"/>
</linearGradient>
<linearGradient id="paint1_linear_115_636" x1="36.5" y1="22.8125" x2="36.5" y2="50.1875" gradientUnits="userSpaceOnUse">
<stop stop-color="#FFD541"/>
<stop offset="1" stop-color="#F7F3AD"/>
</linearGradient>
<clipPath id="clip0_115_636">
<rect width="73" height="73" fill="white"/>
</clipPath>
</defs>
</svg>
