<svg width="67" height="67" viewBox="0 0 67 67" fill="none" xmlns="http://www.w3.org/2000/svg">
<g clip-path="url(#clip0_115_471)">
<path fill-rule="evenodd" clip-rule="evenodd" d="M46.0625 62.8125C50.5049 62.8125 54.7653 61.0478 57.9065 57.9065C61.0478 54.7653 62.8125 50.5049 62.8125 46.0625C62.8125 41.6201 61.0478 37.3597 57.9065 34.2185C54.7653 31.0772 50.5049 29.3125 46.0625 29.3125C41.6201 29.3125 37.3597 31.0772 34.2185 34.2185C31.0772 37.3597 29.3125 41.6201 29.3125 46.0625C29.3125 50.5049 31.0772 54.7653 34.2185 57.9065C37.3597 61.0478 41.6201 62.8125 46.0625 62.8125ZM67 46.0625C67 51.6155 64.7941 56.941 60.8675 60.8675C56.941 64.7941 51.6155 67 46.0625 67C40.5095 67 35.184 64.7941 31.2575 60.8675C27.3309 56.941 25.125 51.6155 25.125 46.0625C25.125 40.5095 27.3309 35.184 31.2575 31.2575C35.184 27.3309 40.5095 25.125 46.0625 25.125C51.6155 25.125 56.941 27.3309 60.8675 31.2575C64.7941 35.184 67 40.5095 67 46.0625Z" fill="url(#paint0_linear_115_471)"/>
<path d="M39.5218 50.0155C39.7186 52.5113 41.6909 54.4543 45.2293 54.6888V56.5312H46.7996V54.6762C50.4637 54.4208 52.6035 52.461 52.6035 49.6219C52.6035 47.034 50.9704 45.7024 48.0391 45.0156L46.7996 44.7225V39.6975C48.3741 39.8776 49.3708 40.736 49.6095 41.9253H52.3648C52.168 39.5174 50.1036 37.6373 46.7996 37.4321V35.5938H45.2293V37.4781C42.1013 37.7838 39.974 39.664 39.974 42.3272C39.974 44.6806 41.5569 46.1797 44.1908 46.7911L45.2293 47.0466V52.3731C43.6213 52.1302 42.5535 51.2424 42.3148 50.0155H39.5176H39.5218ZM45.2168 44.3456C43.6716 43.9897 42.8341 43.2569 42.8341 42.1597C42.8341 40.9286 43.7386 40.0074 45.2293 39.7394V44.3456H45.2168ZM47.0258 47.4695C48.9059 47.905 49.7686 48.6085 49.7686 49.8522C49.7686 51.2717 48.6924 52.2432 46.7996 52.4233V47.4193L47.0258 47.4695Z" fill="url(#paint1_linear_115_471)"/>
<path d="M4.1875 0C3.07691 0 2.0118 0.441182 1.22649 1.22649C0.441182 2.0118 0 3.07691 0 4.1875L0 37.6875C0 38.7981 0.441182 39.8632 1.22649 40.6485C2.0118 41.4338 3.07691 41.875 4.1875 41.875H21.2851C21.5279 40.4345 21.8923 39.0359 22.3654 37.6875H12.5625C12.5625 35.4663 11.6801 33.3361 10.1095 31.7655C8.5389 30.1949 6.40869 29.3125 4.1875 29.3125V12.5625C6.40869 12.5625 8.5389 11.6801 10.1095 10.1095C11.6801 8.5389 12.5625 6.40869 12.5625 4.1875H54.4375C54.4375 6.40869 55.3199 8.5389 56.8905 10.1095C58.4611 11.6801 60.5913 12.5625 62.8125 12.5625V27.336C64.4037 28.7598 65.8149 30.3845 67 32.1684V4.1875C67 3.07691 66.5588 2.0118 65.7735 1.22649C64.9882 0.441182 63.9231 0 62.8125 0L4.1875 0Z" fill="url(#paint2_linear_115_471)"/>
<path d="M41.8666 21.285L41.875 20.9374C41.8741 19.4952 41.5009 18.0776 40.7913 16.822C40.0818 15.5664 39.06 14.5154 37.825 13.7706C36.59 13.0258 35.1836 12.6125 33.742 12.5709C32.3004 12.5292 30.8724 12.8605 29.5965 13.5327C28.3205 14.2049 27.2397 15.1953 26.4588 16.4078C25.678 17.6203 25.2234 19.0139 25.1393 20.4537C25.0551 21.8934 25.3442 23.3305 25.9785 24.6258C26.6128 25.921 27.5708 27.0305 28.7598 27.8468C32.3767 24.4016 36.9411 22.1165 41.8666 21.285Z" fill="url(#paint3_linear_115_471)"/>
</g>
<defs>
<linearGradient id="paint0_linear_115_471" x1="46.0625" y1="25.125" x2="46.0625" y2="67" gradientUnits="userSpaceOnUse">
<stop stop-color="#FFD541"/>
<stop offset="1" stop-color="#F7F3AD"/>
</linearGradient>
<linearGradient id="paint1_linear_115_471" x1="46.0605" y1="35.5938" x2="46.0605" y2="56.5312" gradientUnits="userSpaceOnUse">
<stop stop-color="#FFD541"/>
<stop offset="1" stop-color="#F7F3AD"/>
</linearGradient>
<linearGradient id="paint2_linear_115_471" x1="33.5" y1="0" x2="33.5" y2="41.875" gradientUnits="userSpaceOnUse">
<stop stop-color="#FFD541"/>
<stop offset="1" stop-color="#F7F3AD"/>
</linearGradient>
<linearGradient id="paint3_linear_115_471" x1="33.5" y1="12.5674" x2="33.5" y2="27.8468" gradientUnits="userSpaceOnUse">
<stop stop-color="#FFD541"/>
<stop offset="1" stop-color="#F7F3AD"/>
</linearGradient>
<clipPath id="clip0_115_471">
<rect width="67" height="67" fill="white"/>
</clipPath>
</defs>
</svg>
