<svg width="61" height="61" viewBox="0 0 61 61" fill="none" xmlns="http://www.w3.org/2000/svg">
<path d="M10.2099 45.3459C10.6056 45.7431 10.9088 46.2228 11.098 46.7506C11.2871 47.2785 11.3575 47.8415 11.3041 48.3997C11.0361 50.983 10.5281 53.5356 9.78669 56.0247C15.1051 54.7932 18.3534 53.3674 19.8288 52.6201C20.6657 52.1963 21.6294 52.0958 22.5357 52.338C25.1337 53.0306 27.8113 53.3793 30.5 53.375C45.7347 53.375 57.1875 42.6733 57.1875 30.5C57.1875 18.3305 45.7347 7.625 30.5 7.625C15.2653 7.625 3.8125 18.3305 3.8125 30.5C3.8125 36.0967 6.16481 41.2894 10.2099 45.3459ZM8.33031 60.2337C7.42701 60.4128 6.52078 60.5767 5.612 60.7255C4.8495 60.8475 4.27 60.0545 4.57119 59.3454C4.90971 58.547 5.21998 57.737 5.50144 56.9168L5.51288 56.8787C6.45837 54.1337 7.2285 50.9769 7.51062 48.0375C2.83269 43.3481 0 37.21 0 30.5C0 15.7609 13.6564 3.8125 30.5 3.8125C47.3436 3.8125 61 15.7609 61 30.5C61 45.2391 47.3436 57.1875 30.5 57.1875C27.4792 57.1916 24.4709 56.7994 21.5521 56.0209C19.5696 57.0236 15.3034 58.8498 8.33031 60.2337Z" fill="url(#paint0_linear_115_391)"/>
<defs>
<linearGradient id="paint0_linear_115_391" x1="30.5" y1="3.8125" x2="30.5" y2="60.738" gradientUnits="userSpaceOnUse">
<stop stop-color="#FFD541"/>
<stop offset="1" stop-color="#F7F3AD"/>
</linearGradient>
</defs>
</svg>
