<svg width="66" height="66" viewBox="0 0 66 66" fill="none" xmlns="http://www.w3.org/2000/svg">
<path d="M11.0468 49.0628C11.4749 49.4925 11.803 50.0115 12.0076 50.5826C12.2123 51.1537 12.2884 51.763 12.2306 52.3669C11.9407 55.1619 11.3911 57.9238 10.5889 60.6169C16.3433 59.2845 19.8578 57.7417 21.4541 56.9333C22.3596 56.4747 23.4023 56.366 24.3829 56.628C27.1938 57.3774 30.0909 57.7546 33 57.75C49.4835 57.75 61.875 46.1711 61.875 33C61.875 19.833 49.4835 8.25 33 8.25C16.5165 8.25 4.125 19.833 4.125 33C4.125 39.0555 6.67013 44.6738 11.0468 49.0628ZM9.01312 65.1709C8.03578 65.3646 7.05527 65.542 6.072 65.703C5.247 65.835 4.62 64.977 4.94588 64.2098C5.31214 63.346 5.64785 62.4696 5.95237 61.5821L5.96475 61.5409C6.98775 58.5709 7.821 55.1554 8.12625 51.975C3.06488 46.9013 0 40.26 0 33C0 17.0528 14.7757 4.125 33 4.125C51.2243 4.125 66 17.0528 66 33C66 48.9473 51.2243 61.875 33 61.875C29.7316 61.8794 26.4767 61.455 23.3186 60.6128C21.1736 61.6976 16.5578 63.6735 9.01312 65.1709Z" fill="url(#paint0_linear_115_646)"/>
<path d="M16.5 22.6875C16.5 22.1405 16.7173 21.6159 17.1041 21.2291C17.4909 20.8423 18.0155 20.625 18.5625 20.625H47.4375C47.9845 20.625 48.5091 20.8423 48.8959 21.2291C49.2827 21.6159 49.5 22.1405 49.5 22.6875C49.5 23.2345 49.2827 23.7591 48.8959 24.1459C48.5091 24.5327 47.9845 24.75 47.4375 24.75H18.5625C18.0155 24.75 17.4909 24.5327 17.1041 24.1459C16.7173 23.7591 16.5 23.2345 16.5 22.6875ZM16.5 33C16.5 32.453 16.7173 31.9284 17.1041 31.5416C17.4909 31.1548 18.0155 30.9375 18.5625 30.9375H47.4375C47.9845 30.9375 48.5091 31.1548 48.8959 31.5416C49.2827 31.9284 49.5 32.453 49.5 33C49.5 33.547 49.2827 34.0716 48.8959 34.4584C48.5091 34.8452 47.9845 35.0625 47.4375 35.0625H18.5625C18.0155 35.0625 17.4909 34.8452 17.1041 34.4584C16.7173 34.0716 16.5 33.547 16.5 33ZM16.5 43.3125C16.5 42.7655 16.7173 42.2409 17.1041 41.8541C17.4909 41.4673 18.0155 41.25 18.5625 41.25H35.0625C35.6095 41.25 36.1341 41.4673 36.5209 41.8541C36.9077 42.2409 37.125 42.7655 37.125 43.3125C37.125 43.8595 36.9077 44.3841 36.5209 44.7709C36.1341 45.1577 35.6095 45.375 35.0625 45.375H18.5625C18.0155 45.375 17.4909 45.1577 17.1041 44.7709C16.7173 44.3841 16.5 43.8595 16.5 43.3125Z" fill="url(#paint1_linear_115_646)"/>
<defs>
<linearGradient id="paint0_linear_115_646" x1="33" y1="4.125" x2="33" y2="65.7165" gradientUnits="userSpaceOnUse">
<stop stop-color="#FFD541"/>
<stop offset="1" stop-color="#F7F3AD"/>
</linearGradient>
<linearGradient id="paint1_linear_115_646" x1="33" y1="20.625" x2="33" y2="45.375" gradientUnits="userSpaceOnUse">
<stop stop-color="#FFD541"/>
<stop offset="1" stop-color="#F7F3AD"/>
</linearGradient>
</defs>
</svg>
