<svg width="67" height="67" viewBox="0 0 67 67" fill="none" xmlns="http://www.w3.org/2000/svg">
<g clip-path="url(#clip0_115_643)">
<path d="M33.5 62.8125C25.7258 62.8125 18.2701 59.7242 12.7729 54.2271C7.27577 48.7299 4.1875 41.2742 4.1875 33.5C4.1875 25.7258 7.27577 18.2701 12.7729 12.7729C18.2701 7.27577 25.7258 4.1875 33.5 4.1875C41.2742 4.1875 48.7299 7.27577 54.2271 12.7729C59.7242 18.2701 62.8125 25.7258 62.8125 33.5C62.8125 41.2742 59.7242 48.7299 54.2271 54.2271C48.7299 59.7242 41.2742 62.8125 33.5 62.8125ZM33.5 67C42.3848 67 50.9056 63.4705 57.1881 57.1881C63.4705 50.9056 67 42.3848 67 33.5C67 24.6152 63.4705 16.0944 57.1881 9.81192C50.9056 3.52945 42.3848 0 33.5 0C24.6152 0 16.0944 3.52945 9.81192 9.81192C3.52945 16.0944 0 24.6152 0 33.5C0 42.3848 3.52945 50.9056 9.81192 57.1881C16.0944 63.4705 24.6152 67 33.5 67Z" fill="url(#paint0_linear_115_643)"/>
<path d="M45.9367 20.8118C45.9069 20.8407 45.8789 20.8714 45.853 20.9039L31.3098 39.4336L22.5453 30.665C21.95 30.1102 21.1625 29.8082 20.3489 29.8225C19.5353 29.8369 18.759 30.1665 18.1835 30.7419C17.6081 31.3173 17.2785 32.0936 17.2642 32.9073C17.2498 33.7209 17.5518 34.5084 18.1066 35.1037L29.1867 46.188C29.4852 46.486 29.8406 46.7207 30.2318 46.8783C30.623 47.0359 31.042 47.1131 31.4636 47.1053C31.8853 47.0975 32.3011 47.0048 32.6862 46.8329C33.0713 46.6609 33.4178 46.4131 33.705 46.1043L50.4215 25.2086C50.9907 24.6112 51.3019 23.8138 51.2879 22.9887C51.2738 22.1637 50.9356 21.3773 50.3464 20.7996C49.7571 20.2219 48.9642 19.8993 48.139 19.9016C47.3139 19.9039 46.5227 20.2308 45.9367 20.8118Z" fill="url(#paint1_linear_115_643)"/>
</g>
<defs>
<linearGradient id="paint0_linear_115_643" x1="33.5" y1="0" x2="33.5" y2="67" gradientUnits="userSpaceOnUse">
<stop stop-color="#FFD541"/>
<stop offset="1" stop-color="#F7F3AD"/>
</linearGradient>
<linearGradient id="paint1_linear_115_643" x1="34.276" y1="19.9016" x2="34.276" y2="47.1059" gradientUnits="userSpaceOnUse">
<stop stop-color="#FFD541"/>
<stop offset="1" stop-color="#F7F3AD"/>
</linearGradient>
<clipPath id="clip0_115_643">
<rect width="67" height="67" fill="white"/>
</clipPath>
</defs>
</svg>
