<svg width="65" height="65" viewBox="0 0 65 65" fill="none" xmlns="http://www.w3.org/2000/svg">
<path fill-rule="evenodd" clip-rule="evenodd" d="M44.094 29.0306C44.2832 29.2193 44.4333 29.4434 44.5357 29.6902C44.6381 29.937 44.6908 30.2015 44.6908 30.4687C44.6908 30.7359 44.6381 31.0005 44.5357 31.2472C44.4333 31.494 44.2832 31.7182 44.094 31.9068L31.9065 44.0943C31.7178 44.2835 31.4937 44.4336 31.2469 44.536C31.0001 44.6384 30.7356 44.6911 30.4684 44.6911C30.2012 44.6911 29.9367 44.6384 29.6899 44.536C29.4431 44.4336 29.2189 44.2835 29.0303 44.0943L22.9365 38.0006C22.7477 37.8117 22.5978 37.5875 22.4956 37.3408C22.3934 37.094 22.3408 36.8296 22.3408 36.5625C22.3408 36.2954 22.3934 36.0309 22.4956 35.7842C22.5978 35.5374 22.7477 35.3132 22.9365 35.1243C23.3179 34.7429 23.8352 34.5287 24.3746 34.5287C24.6417 34.5287 24.9062 34.5813 25.1529 34.6835C25.3997 34.7857 25.6239 34.9355 25.8128 35.1243L30.4684 39.784L41.2178 29.0306C41.4065 28.8414 41.6306 28.6913 41.8774 28.5889C42.1242 28.4865 42.3887 28.4338 42.6559 28.4338C42.9231 28.4338 43.1876 28.4865 43.4344 28.5889C43.6812 28.6913 43.9053 28.8414 44.094 29.0306Z" fill="url(#paint0_linear_115_465)"/>
<path d="M16.25 6.09375H12.1875C10.0326 6.09375 7.96599 6.94977 6.44226 8.47351C4.91852 9.99724 4.0625 12.0639 4.0625 14.2188V56.875C4.0625 59.0299 4.91852 61.0965 6.44226 62.6202C7.96599 64.144 10.0326 65 12.1875 65H52.8125C54.9674 65 57.034 64.144 58.5577 62.6202C60.0815 61.0965 60.9375 59.0299 60.9375 56.875V14.2188C60.9375 12.0639 60.0815 9.99724 58.5577 8.47351C57.034 6.94977 54.9674 6.09375 52.8125 6.09375H48.75V10.1562H52.8125C53.8899 10.1562 54.9233 10.5843 55.6851 11.3461C56.447 12.108 56.875 13.1413 56.875 14.2188V56.875C56.875 57.9524 56.447 58.9858 55.6851 59.7476C54.9233 60.5095 53.8899 60.9375 52.8125 60.9375H12.1875C11.1101 60.9375 10.0767 60.5095 9.31488 59.7476C8.55301 58.9858 8.125 57.9524 8.125 56.875V14.2188C8.125 13.1413 8.55301 12.108 9.31488 11.3461C10.0767 10.5843 11.1101 10.1562 12.1875 10.1562H16.25V6.09375Z" fill="url(#paint1_linear_115_465)"/>
<path d="M38.5938 4.0625C39.1325 4.0625 39.6491 4.27651 40.0301 4.65744C40.411 5.03837 40.625 5.55503 40.625 6.09375V10.1562C40.625 10.695 40.411 11.2116 40.0301 11.5926C39.6491 11.9735 39.1325 12.1875 38.5938 12.1875H26.4062C25.8675 12.1875 25.3509 11.9735 24.9699 11.5926C24.589 11.2116 24.375 10.695 24.375 10.1562V6.09375C24.375 5.55503 24.589 5.03837 24.9699 4.65744C25.3509 4.27651 25.8675 4.0625 26.4062 4.0625H38.5938ZM26.4062 0C24.7901 0 23.2401 0.642018 22.0973 1.78482C20.9545 2.92762 20.3125 4.47759 20.3125 6.09375V10.1562C20.3125 11.7724 20.9545 13.3224 22.0973 14.4652C23.2401 15.608 24.7901 16.25 26.4062 16.25H38.5938C40.2099 16.25 41.7599 15.608 42.9027 14.4652C44.0455 13.3224 44.6875 11.7724 44.6875 10.1562V6.09375C44.6875 4.47759 44.0455 2.92762 42.9027 1.78482C41.7599 0.642018 40.2099 0 38.5938 0L26.4062 0Z" fill="url(#paint2_linear_115_465)"/>
<defs>
<linearGradient id="paint0_linear_115_465" x1="33.5158" y1="28.4338" x2="33.5158" y2="44.6911" gradientUnits="userSpaceOnUse">
<stop stop-color="#FFD541"/>
<stop offset="1" stop-color="#F7F3AD"/>
</linearGradient>
<linearGradient id="paint1_linear_115_465" x1="32.5" y1="6.09375" x2="32.5" y2="65" gradientUnits="userSpaceOnUse">
<stop stop-color="#FFD541"/>
<stop offset="1" stop-color="#F7F3AD"/>
</linearGradient>
<linearGradient id="paint2_linear_115_465" x1="32.5" y1="0" x2="32.5" y2="16.25" gradientUnits="userSpaceOnUse">
<stop stop-color="#FFD541"/>
<stop offset="1" stop-color="#F7F3AD"/>
</linearGradient>
</defs>
</svg>
