<svg width="66" height="66" viewBox="0 0 66 66" fill="none" xmlns="http://www.w3.org/2000/svg">
<g clip-path="url(#clip0_115_396)">
<path d="M22.6875 39.2329C23.001 43.1681 26.1113 46.233 31.6883 46.596V49.5H34.1632V46.5754C39.9382 46.1711 43.3125 43.0856 43.3125 38.6059C43.3125 34.5345 40.7303 32.4349 36.1144 31.3459L34.1632 30.8839V22.9763C36.6382 23.2568 38.214 24.6098 38.5935 26.4825H42.933C42.6195 22.6916 39.369 19.7257 34.1632 19.404V16.5H31.6883V19.4659C26.7589 19.9485 23.397 22.9144 23.397 27.1095C23.397 30.822 25.8967 33.1815 30.0506 34.1509L31.6883 34.5551V42.9454C29.1514 42.5618 27.4725 41.1716 27.093 39.2329H22.6875V39.2329ZM31.6676 30.2981C29.2339 29.733 27.9139 28.5821 27.9139 26.8496C27.9139 24.9109 29.337 23.4589 31.6883 23.034V30.294H31.6676V30.2981ZM34.5221 35.2193C37.4798 35.904 38.8451 37.0136 38.8451 38.973C38.8451 41.2087 37.1456 42.7433 34.1632 43.0238V35.1367L34.5221 35.2193V35.2193Z" fill="url(#paint0_linear_115_396)"/>
<path d="M33 61.875C25.3419 61.875 17.9974 58.8328 12.5823 53.4177C7.16718 48.0026 4.125 40.6581 4.125 33C4.125 25.3419 7.16718 17.9974 12.5823 12.5823C17.9974 7.16718 25.3419 4.125 33 4.125C40.6581 4.125 48.0026 7.16718 53.4177 12.5823C58.8328 17.9974 61.875 25.3419 61.875 33C61.875 40.6581 58.8328 48.0026 53.4177 53.4177C48.0026 58.8328 40.6581 61.875 33 61.875ZM33 66C41.7521 66 50.1458 62.5232 56.3345 56.3345C62.5232 50.1458 66 41.7521 66 33C66 24.2479 62.5232 15.8542 56.3345 9.66548C50.1458 3.47678 41.7521 0 33 0C24.2479 0 15.8542 3.47678 9.66548 9.66548C3.47678 15.8542 0 24.2479 0 33C0 41.7521 3.47678 50.1458 9.66548 56.3345C15.8542 62.5232 24.2479 66 33 66V66Z" fill="url(#paint1_linear_115_396)"/>
<path d="M33 55.6875C26.9829 55.6875 21.2122 53.2972 16.9575 49.0425C12.7028 44.7878 10.3125 39.0171 10.3125 33C10.3125 26.9829 12.7028 21.2122 16.9575 16.9575C21.2122 12.7028 26.9829 10.3125 33 10.3125C39.0171 10.3125 44.7878 12.7028 49.0425 16.9575C53.2972 21.2122 55.6875 26.9829 55.6875 33C55.6875 39.0171 53.2972 44.7878 49.0425 49.0425C44.7878 53.2972 39.0171 55.6875 33 55.6875ZM33 57.75C36.2502 57.75 39.4686 57.1098 42.4714 55.866C45.4742 54.6222 48.2026 52.7991 50.5009 50.5009C52.7991 48.2026 54.6222 45.4742 55.866 42.4714C57.1098 39.4686 57.75 36.2502 57.75 33C57.75 29.7498 57.1098 26.5314 55.866 23.5286C54.6222 20.5258 52.7991 17.7974 50.5009 15.4991C48.2026 13.2009 45.4742 11.3778 42.4714 10.134C39.4686 8.89018 36.2502 8.25 33 8.25C26.4359 8.25 20.1406 10.8576 15.4991 15.4991C10.8576 20.1406 8.25 26.4359 8.25 33C8.25 39.5641 10.8576 45.8594 15.4991 50.5009C20.1406 55.1424 26.4359 57.75 33 57.75V57.75Z" fill="url(#paint2_linear_115_396)"/>
</g>
<defs>
<linearGradient id="paint0_linear_115_396" x1="33" y1="16.5" x2="33" y2="49.5" gradientUnits="userSpaceOnUse">
<stop stop-color="#FFD541"/>
<stop offset="1" stop-color="#F7F3AD"/>
</linearGradient>
<linearGradient id="paint1_linear_115_396" x1="33" y1="0" x2="33" y2="66" gradientUnits="userSpaceOnUse">
<stop stop-color="#FFD541"/>
<stop offset="1" stop-color="#F7F3AD"/>
</linearGradient>
<linearGradient id="paint2_linear_115_396" x1="33" y1="8.25" x2="33" y2="57.75" gradientUnits="userSpaceOnUse">
<stop stop-color="#FFD541"/>
<stop offset="1" stop-color="#F7F3AD"/>
</linearGradient>
<clipPath id="clip0_115_396">
<rect width="66" height="66" fill="white"/>
</clipPath>
</defs>
</svg>
