<svg width="75" height="75" viewBox="0 0 75 75" fill="none" xmlns="http://www.w3.org/2000/svg">
<g clip-path="url(#clip0_115_623)">
<path d="M42.4221 2.03906C39.7033 -0.679687 35.2971 -0.679687 32.5783 2.03906L2.04395 32.5781C-0.674805 35.2969 -0.674805 39.6984 2.04395 42.4125L32.5877 72.9563C35.3064 75.675 39.708 75.675 42.4221 72.9563L72.9658 42.4125C75.6846 39.6938 75.6846 35.2922 72.9658 32.5781L42.4221 2.03906ZM37.5002 4.63594C38.0955 4.63594 38.6861 4.86562 39.1408 5.31562L69.6846 35.8594C70.1197 36.2945 70.3641 36.8847 70.3641 37.5C70.3641 38.1153 70.1197 38.7055 69.6846 39.1406L39.1408 69.6844C38.9257 69.9003 38.67 70.0715 38.3884 70.1881C38.1068 70.3048 37.805 70.3645 37.5002 70.3641V4.63594Z" fill="url(#paint0_linear_115_623)"/>
</g>
<defs>
<linearGradient id="paint0_linear_115_623" x1="37.5049" y1="0" x2="37.5049" y2="74.9953" gradientUnits="userSpaceOnUse">
<stop stop-color="#FFD541"/>
<stop offset="1" stop-color="#F7F3AD"/>
</linearGradient>
<clipPath id="clip0_115_623">
<rect width="75" height="75" fill="white"/>
</clipPath>
</defs>
</svg>
