<svg width="75" height="75" viewBox="0 0 75 75" fill="none" xmlns="http://www.w3.org/2000/svg">
<path d="M75 37.5C75 37.5 60.9375 11.7188 37.5 11.7188C14.0625 11.7188 0 37.5 0 37.5C0 37.5 14.0625 63.2812 37.5 63.2812C60.9375 63.2812 75 37.5 75 37.5ZM5.49844 37.5C7.76491 34.0553 10.3718 30.847 13.2797 27.9234C19.3125 21.8812 27.5625 16.4062 37.5 16.4062C47.4375 16.4062 55.6828 21.8812 61.725 27.9234C64.6329 30.847 67.2398 34.0553 69.5062 37.5C69.2344 37.9078 68.9344 38.3578 68.5922 38.85C67.0219 41.1 64.7016 44.1 61.725 47.0766C55.6828 53.1188 47.4328 58.5938 37.5 58.5938C27.5625 58.5938 19.3172 53.1188 13.275 47.0766C10.3671 44.153 7.76025 40.9447 5.49375 37.5H5.49844Z" fill="url(#paint0_linear_115_629)"/>
<path d="M37.5 25.7812C34.392 25.7812 31.4113 27.0159 29.2136 29.2136C27.0159 31.4113 25.7812 34.392 25.7812 37.5C25.7812 40.608 27.0159 43.5887 29.2136 45.7864C31.4113 47.9841 34.392 49.2188 37.5 49.2188C40.608 49.2188 43.5887 47.9841 45.7864 45.7864C47.9841 43.5887 49.2188 40.608 49.2188 37.5C49.2188 34.392 47.9841 31.4113 45.7864 29.2136C43.5887 27.0159 40.608 25.7812 37.5 25.7812ZM21.0938 37.5C21.0938 33.1488 22.8223 28.9758 25.899 25.899C28.9758 22.8223 33.1488 21.0938 37.5 21.0938C41.8512 21.0938 46.0242 22.8223 49.101 25.899C52.1777 28.9758 53.9062 33.1488 53.9062 37.5C53.9062 41.8512 52.1777 46.0242 49.101 49.101C46.0242 52.1777 41.8512 53.9062 37.5 53.9062C33.1488 53.9062 28.9758 52.1777 25.899 49.101C22.8223 46.0242 21.0938 41.8512 21.0938 37.5Z" fill="url(#paint1_linear_115_629)"/>
<defs>
<linearGradient id="paint0_linear_115_629" x1="37.5" y1="11.7187" x2="37.5" y2="63.2812" gradientUnits="userSpaceOnUse">
<stop stop-color="#FFD541"/>
<stop offset="1" stop-color="#F7F3AD"/>
</linearGradient>
<linearGradient id="paint1_linear_115_629" x1="37.5" y1="21.0937" x2="37.5" y2="53.9062" gradientUnits="userSpaceOnUse">
<stop stop-color="#FFD541"/>
<stop offset="1" stop-color="#F7F3AD"/>
</linearGradient>
</defs>
</svg>
