<svg width="61" height="61" viewBox="0 0 61 61" fill="none" xmlns="http://www.w3.org/2000/svg">
<path fill-rule="evenodd" clip-rule="evenodd" d="M0 0H3.8125V57.1875H61V61H0V0ZM56.4898 11.8683C56.6837 12.0269 56.8444 12.2222 56.9627 12.443C57.0811 12.6638 57.1547 12.9057 57.1795 13.155C57.2043 13.4043 57.1797 13.656 57.1072 13.8957C57.0346 14.1355 56.9155 14.3586 56.7567 14.5523L39.6004 35.5211C39.4318 35.7269 39.222 35.8951 38.9844 36.015C38.7468 36.1348 38.4868 36.2036 38.2211 36.2169C37.9553 36.2301 37.6898 36.1876 37.4414 36.0921C37.1931 35.9966 36.9675 35.8501 36.7792 35.6621L26.9163 25.7992L12.9777 44.9646C12.6728 45.3523 12.2295 45.6068 11.7409 45.6745C11.2523 45.7421 10.7565 45.6178 10.3577 45.3276C9.95887 45.0373 9.68807 44.6038 9.6022 44.1181C9.51634 43.6324 9.6221 43.1323 9.89725 42.7229L25.1473 21.7541C25.3091 21.5311 25.5174 21.3459 25.7577 21.2112C25.9981 21.0764 26.2648 20.9954 26.5395 20.9737C26.8141 20.9519 27.0903 20.99 27.3488 21.0852C27.6074 21.1805 27.8422 21.3306 28.0371 21.5254L37.9839 31.476L53.8058 12.1352C53.9644 11.9413 54.1597 11.7806 54.3805 11.6623C54.6013 11.5439 54.8432 11.4703 55.0925 11.4455C55.3418 11.4207 55.5935 11.4453 55.8332 11.5178C56.073 11.5904 56.2961 11.7095 56.4898 11.8683Z" fill="url(#paint0_linear_115_614)"/>
<defs>
<linearGradient id="paint0_linear_115_614" x1="30.5" y1="0" x2="30.5" y2="61" gradientUnits="userSpaceOnUse">
<stop stop-color="#FFD541"/>
<stop offset="1" stop-color="#F7F3AD"/>
</linearGradient>
</defs>
</svg>
