<svg width="69" height="76" viewBox="0 0 69 76" fill="none" xmlns="http://www.w3.org/2000/svg">
<g clip-path="url(#clip0_115_406)">
<path d="M35.104 0.218534C30.563 -0.916716 26.345 2.51753 26.041 6.96353C25.699 11.9558 24.9485 16.5395 24.008 19.266C23.4142 20.976 21.7327 24.0778 19.068 27.0513C16.4222 30.0105 12.9785 32.6468 8.94575 33.7488C5.75375 34.618 2.5 37.3825 2.5 41.42V60.4248C2.5 64.4385 5.7395 67.3788 9.378 67.7635C14.4605 68.305 16.807 69.7348 19.201 71.1978L19.429 71.3403C20.721 72.124 22.1745 72.9933 24.0365 73.6393C25.9222 74.2853 28.1262 74.67 31 74.67H47.625C52.0757 74.67 55.2202 72.4043 56.8115 69.616C57.5806 68.3003 57.9962 66.8079 58.018 65.284C58.018 64.562 57.9087 63.802 57.6523 63.08C58.607 61.8308 59.4572 60.3345 59.9702 58.8003C60.4927 57.2328 60.7872 55.1808 59.9893 53.3425C60.317 52.725 60.5592 52.0648 60.7445 51.4283C61.1102 50.1458 61.2812 48.7303 61.2812 47.3575C61.2812 45.9895 61.1102 44.5788 60.7445 43.2915C60.5783 42.6998 60.3589 42.1242 60.089 41.572C60.9207 40.3887 61.4559 39.0228 61.6493 37.5893C61.8427 36.1559 61.6888 34.697 61.2005 33.3355C60.222 30.5235 57.961 28.1105 55.5005 27.2935C51.4772 25.954 46.9363 25.9825 43.5495 26.2913C42.8464 26.3545 42.1448 26.4337 41.4453 26.5288C43.0931 19.4721 42.992 12.1197 41.1507 5.11103C40.8304 3.98808 40.2159 2.97109 39.3708 2.16522C38.5257 1.35936 37.4807 0.793888 36.3438 0.527284L35.104 0.218534ZM47.625 69.9248H31C28.5775 69.9248 26.9008 69.597 25.585 69.1458C24.2502 68.685 23.1815 68.0628 21.899 67.279L21.709 67.165C19.0728 65.5548 16.0185 63.6928 9.8815 63.042C8.29975 62.871 7.25 61.6645 7.25 60.4295V41.42C7.25 40.2135 8.3235 38.8408 10.195 38.3325C15.3962 36.9075 19.5858 33.6015 22.6115 30.2195C25.6278 26.847 27.6655 23.2133 28.492 20.824C29.6462 17.499 30.4252 12.426 30.7815 7.28653C30.9002 5.56703 32.4915 4.46503 33.9498 4.82603L35.1943 5.13953C35.9543 5.32953 36.4197 5.81878 36.5622 6.35078C38.5021 13.7419 38.2629 21.5363 35.8735 28.7945C35.7383 29.1982 35.714 29.6308 35.8033 30.0471C35.8926 30.4634 36.0921 30.848 36.381 31.1607C36.67 31.4734 37.0376 31.7027 37.4455 31.8246C37.8535 31.9465 38.2866 31.9565 38.6998 31.8535L38.714 31.8488L38.7805 31.8345L39.056 31.768C40.6803 31.4231 42.3235 31.1741 43.977 31.0223C47.1263 30.7373 50.8978 30.7658 53.9995 31.8013C54.8307 32.0768 56.137 33.2263 56.707 34.8888C57.2152 36.3518 57.1203 38.0713 55.4435 39.7433L53.7668 41.42L55.4435 43.1015C55.6478 43.3058 55.9422 43.7713 56.175 44.5978C56.403 45.391 56.5312 46.3553 56.5312 47.3575C56.5312 48.3645 56.403 49.324 56.175 50.122C55.9375 50.9485 55.6478 51.414 55.4435 51.6183L53.7668 53.295L55.4435 54.9765C55.6667 55.1998 55.9613 55.8173 55.4673 57.2945C54.9525 58.727 54.1342 60.0314 53.0685 61.1183L51.3918 62.795L53.0685 64.4765C53.097 64.5003 53.2633 64.714 53.2633 65.284C53.2422 65.9808 53.0444 66.6607 52.6885 67.26C51.9048 68.628 50.2993 69.92 47.625 69.92V69.9248Z" fill="url(#paint0_linear_115_406)"/>
</g>
<defs>
<linearGradient id="paint0_linear_115_406" x1="32.1152" y1="-0.000366211" x2="32.1152" y2="74.67" gradientUnits="userSpaceOnUse">
<stop stop-color="#FFD541"/>
<stop offset="1" stop-color="#F7F3AD"/>
</linearGradient>
<clipPath id="clip0_115_406">
<rect width="69" height="76" fill="white"/>
</clipPath>
</defs>
</svg>
