<svg width="31" height="30" viewBox="0 0 31 30" fill="none" xmlns="http://www.w3.org/2000/svg">
<path d="M15.5 2.70651C19.5078 2.70651 19.9832 2.72035 21.566 2.79419C23.0288 2.85879 23.8249 3.10337 24.3533 3.31103C25.0007 3.56032 25.5888 3.94247 26.0796 4.43286C26.5704 4.92326 26.953 5.51102 27.2028 6.15828C27.5331 7.05101 27.7079 7.99376 27.7197 8.94555C27.7912 10.5284 27.8073 11.0037 27.8073 15.0115C27.8073 19.0194 27.7912 19.4947 27.7197 21.0775C27.7081 22.0301 27.5333 22.9736 27.2028 23.8671C26.953 24.5144 26.5704 25.1021 26.0796 25.5925C25.5888 26.0829 25.0007 26.4651 24.3533 26.7143C23.4606 27.0451 22.5178 27.2199 21.566 27.2312C19.9832 27.305 19.5078 27.3189 15.5 27.3189C11.4922 27.3189 11.0168 27.305 9.43401 27.2312C8.48217 27.2199 7.53935 27.0451 6.64675 26.7143C5.99928 26.4651 5.41121 26.0829 4.92042 25.5925C4.42963 25.1021 4.047 24.5144 3.79718 23.8671C3.46669 22.9736 3.29188 22.0301 3.28034 21.0775C3.20881 19.4947 3.19266 19.0217 3.19266 15.0115C3.19266 11.0014 3.20881 10.5284 3.28034 8.94555C3.2921 7.99376 3.46691 7.05101 3.79718 6.15828C4.047 5.51102 4.42963 4.92326 4.92042 4.43286C5.41121 3.94247 5.99928 3.56032 6.64675 3.31103C7.17513 3.10337 7.96885 2.84957 9.43401 2.79419C11.0168 2.72035 11.4922 2.70651 15.5 2.70651ZM15.5 0C11.4229 0 10.9107 0.0184621 9.30941 0.0899895C8.06462 0.113478 6.83279 0.347518 5.66613 0.782191C4.67074 1.16794 3.76675 1.75705 3.0119 2.5119C2.25704 3.26675 1.66793 4.17074 1.28219 5.16613C0.846306 6.33246 0.612226 7.5645 0.589986 8.80942C0.516151 10.4107 0.5 10.9206 0.5 14.9977C0.5 19.0748 0.516151 19.587 0.589986 21.1883C0.612495 22.4332 0.846566 23.6652 1.28219 24.8316C1.66793 25.827 2.25704 26.7309 3.0119 27.4858C3.76675 28.2406 4.67074 28.8298 5.66613 29.2155C6.83253 29.6511 8.06452 29.8852 9.30941 29.9077C10.9107 29.9815 11.4229 30 15.5 30C19.5771 30 20.087 29.9815 21.6883 29.9077C22.9339 29.8854 24.1667 29.6513 25.3339 29.2155C26.3296 28.8304 27.2339 28.2415 27.9889 27.4866C28.7438 26.7316 29.3327 25.8273 29.7178 24.8316C30.1525 23.6649 30.3865 22.4331 30.41 21.1883C30.4815 19.587 30.5 19.0748 30.5 14.9977C30.5 10.9206 30.4815 10.4107 30.41 8.80942C30.3867 7.56461 30.1527 6.33274 29.7178 5.16613C29.3327 4.17038 28.7438 3.26607 27.9889 2.51114C27.2339 1.75621 26.3296 1.16731 25.3339 0.782191C24.1665 0.347348 22.9338 0.113307 21.6883 0.0899895C20.087 0.0184621 19.5771 0 15.5 0Z" fill="white"/>
<path d="M15.4998 7.30273C13.9752 7.30273 12.4848 7.75484 11.217 8.6019C9.94934 9.44896 8.96128 10.6529 8.37782 12.0615C7.79436 13.4701 7.6417 15.0201 7.93914 16.5155C8.23659 18.0108 8.97078 19.3844 10.0489 20.4625C11.127 21.5406 12.5006 22.2748 13.9959 22.5722C15.4913 22.8697 17.0413 22.717 18.4499 22.1336C19.8585 21.5501 21.0624 20.562 21.9095 19.2943C22.7565 18.0266 23.2086 16.5362 23.2086 15.0115C23.2086 13.9992 23.0093 12.9968 22.6218 12.0615C22.2344 11.1262 21.6666 10.2764 20.9508 9.56059C20.235 8.84476 19.3851 8.27694 18.4499 7.88953C17.5146 7.50213 16.5122 7.30273 15.4998 7.30273ZM15.4998 20.0162C14.51 20.0162 13.5424 19.7226 12.7194 19.1727C11.8964 18.6228 11.255 17.8412 10.8762 16.9267C10.4974 16.0123 10.3983 15.006 10.5914 14.0352C10.7845 13.0644 11.2611 12.1727 11.961 11.4727C12.6609 10.7728 13.5527 10.2962 14.5235 10.1031C15.4943 9.90999 16.5005 10.0091 17.415 10.3879C18.3295 10.7667 19.1111 11.4081 19.661 12.2311C20.2109 13.0541 20.5044 14.0217 20.5044 15.0115C20.5044 16.3388 19.9772 17.6118 19.0386 18.5503C18.1001 19.4889 16.8271 20.0162 15.4998 20.0162Z" fill="white"/>
<path d="M23.5149 8.79986C24.5102 8.79986 25.317 7.99306 25.317 6.99783C25.317 6.0026 24.5102 5.1958 23.5149 5.1958C22.5197 5.1958 21.7129 6.0026 21.7129 6.99783C21.7129 7.99306 22.5197 8.79986 23.5149 8.79986Z" fill="white"/>
</svg>
