<svg width="75" height="75" viewBox="0 0 75 75" fill="none" xmlns="http://www.w3.org/2000/svg">
<path d="M44.5311 12.5251C44.5311 13.1467 44.7781 13.7428 45.2176 14.1824C45.6571 14.6219 46.2533 14.8688 46.8749 14.8688C47.4965 14.8688 48.0926 14.6219 48.5322 14.1824C48.9717 13.7428 49.2186 13.1467 49.2186 12.5251V3.95166C49.2186 3.33006 48.9717 2.73392 48.5322 2.29438C48.0926 1.85484 47.4965 1.60791 46.8749 1.60791C46.2533 1.60791 45.6571 1.85484 45.2176 2.29438C44.7781 2.73392 44.5311 3.33006 44.5311 3.95166V12.5251ZM65.6249 12.6892C66.0518 12.2471 66.2881 11.6551 66.2827 11.0406C66.2774 10.426 66.0309 9.8382 65.5963 9.40365C65.1618 8.9691 64.574 8.72261 63.9594 8.71727C63.3449 8.71193 62.7529 8.94816 62.3108 9.3751L56.2499 15.436C56.026 15.6522 55.8475 15.9109 55.7247 16.1968C55.6018 16.4828 55.5372 16.7903 55.5345 17.1015C55.5318 17.4127 55.5911 17.7213 55.7089 18.0094C55.8268 18.2974 56.0008 18.5591 56.2208 18.7791C56.4409 18.9992 56.7026 19.1732 56.9906 19.2911C57.2787 19.4089 57.5873 19.4682 57.8985 19.4655C58.2097 19.4628 58.5172 19.3982 58.8032 19.2753C59.0891 19.1525 59.3478 18.9739 59.564 18.7501L65.6249 12.6892ZM34.1858 18.7501C34.402 18.9739 34.6607 19.1525 34.9466 19.2753C35.2326 19.3982 35.5401 19.4628 35.8513 19.4655C36.1625 19.4682 36.4711 19.4089 36.7592 19.2911C37.0472 19.1732 37.3089 18.9992 37.5289 18.7791C37.749 18.5591 37.923 18.2974 38.0409 18.0094C38.1587 17.7213 38.218 17.4127 38.2153 17.1015C38.2126 16.7903 38.148 16.4828 38.0251 16.1968C37.9023 15.9109 37.7237 15.6522 37.4999 15.436L31.439 9.3751C30.9969 8.94816 30.4049 8.71193 29.7904 8.71727C29.1758 8.72261 28.588 8.9691 28.1534 9.40365C27.7189 9.8382 27.4724 10.426 27.4671 11.0406C27.4617 11.6551 27.698 12.2471 28.1249 12.6892L34.1858 18.7501ZM31.2749 30.4688C31.8965 30.4688 32.4926 30.2219 32.9322 29.7824C33.3717 29.3428 33.6186 28.7467 33.6186 28.1251C33.6186 27.5035 33.3717 26.9074 32.9322 26.4678C32.4926 26.0283 31.8965 25.7813 31.2749 25.7813H22.7015C22.0799 25.7813 21.4837 26.0283 21.0442 26.4678C20.6046 26.9074 20.3577 27.5035 20.3577 28.1251C20.3577 28.7467 20.6046 29.3428 21.0442 29.7824C21.4837 30.2219 22.0799 30.4688 22.7015 30.4688H31.2749ZM71.0483 30.4688C71.6699 30.4688 72.2661 30.2219 72.7056 29.7824C73.1452 29.3428 73.3921 28.7467 73.3921 28.1251C73.3921 27.5035 73.1452 26.9074 72.7056 26.4678C72.2661 26.0283 71.6699 25.7813 71.0483 25.7813H62.4749C61.8533 25.7813 61.2571 26.0283 60.8176 26.4678C60.3781 26.9074 60.1311 27.5035 60.1311 28.1251C60.1311 28.7467 60.3781 29.3428 60.8176 29.7824C61.2571 30.2219 61.8533 30.4688 62.4749 30.4688H71.0483ZM62.3108 46.8751C62.527 47.0989 62.7857 47.2775 63.0716 47.4003C63.3575 47.5232 63.6651 47.5878 63.9763 47.5905C64.2875 47.5932 64.5961 47.5339 64.8842 47.4161C65.1722 47.2982 65.4339 47.1242 65.6539 46.9041C65.874 46.6841 66.048 46.4224 66.1659 46.1344C66.2837 45.8463 66.343 45.5377 66.3403 45.2265C66.3376 44.9153 66.273 44.6077 66.1501 44.3218C66.0273 44.0359 65.8487 43.7772 65.6249 43.561L59.564 37.5001C59.3478 37.2762 59.0891 37.0977 58.8032 36.9749C58.5172 36.852 58.2097 36.7874 57.8985 36.7847C57.5873 36.782 57.2787 36.8413 56.9906 36.9591C56.7026 37.077 56.4409 37.251 56.2208 37.471C56.0008 37.6911 55.8268 37.9528 55.7089 38.2408C55.5911 38.5289 55.5318 38.8375 55.5345 39.1487C55.5372 39.4599 55.6018 39.7674 55.7247 40.0534C55.8475 40.3393 56.026 40.5979 56.2499 40.8142L62.3108 46.8751ZM44.5311 52.2985C44.5311 52.9201 44.7781 53.5163 45.2176 53.9558C45.6571 54.3953 46.2533 54.6423 46.8749 54.6423C47.4965 54.6423 48.0926 54.3953 48.5322 53.9558C48.9717 53.5163 49.2186 52.9201 49.2186 52.2985V43.7251C49.2186 43.1035 48.9717 42.5073 48.5322 42.0678C48.0926 41.6283 47.4965 41.3813 46.8749 41.3813C46.2533 41.3813 45.6571 41.6283 45.2176 42.0678C44.7781 42.5073 44.5311 43.1035 44.5311 43.7251V52.2985ZM53.2218 28.4063C53.6597 27.967 53.9056 27.372 53.9056 26.7517C53.9056 26.1313 53.6597 25.5363 53.2218 25.097L49.903 21.7782C49.4635 21.3388 48.8675 21.092 48.246 21.092C47.6245 21.092 47.0285 21.3388 46.589 21.7782L40.528 27.8438C40.0886 28.2834 39.8418 28.8794 39.8418 29.5009C39.8418 30.1224 40.0886 30.7184 40.528 31.1579L43.8468 34.4767C44.2863 34.916 44.8823 35.1629 45.5038 35.1629C46.1253 35.1629 46.7213 34.916 47.1608 34.4767L53.2218 28.4157V28.4063ZM39.1593 42.4688C39.5972 42.0295 39.8431 41.4345 39.8431 40.8142C39.8431 40.1938 39.5972 39.5988 39.1593 39.1595L35.8405 35.8407C35.401 35.4013 34.805 35.1545 34.1835 35.1545C33.562 35.1545 32.966 35.4013 32.5265 35.8407L3.02802 65.3438C2.58863 65.7834 2.3418 66.3794 2.3418 67.0009C2.3418 67.6223 2.58863 68.2184 3.02802 68.6579L6.34677 71.9766C6.78628 72.416 7.38232 72.6629 8.0038 72.6629C8.62528 72.6629 9.22131 72.416 9.66083 71.9766L39.1593 42.4688Z" fill="url(#paint0_linear_115_469)"/>
<defs>
<linearGradient id="paint0_linear_115_469" x1="37.8669" y1="1.60791" x2="37.8669" y2="72.6629" gradientUnits="userSpaceOnUse">
<stop stop-color="#FFD541"/>
<stop offset="1" stop-color="#F7F3AD"/>
</linearGradient>
</defs>
</svg>
