<svg width="86" height="64" viewBox="0 0 86 64" fill="none" xmlns="http://www.w3.org/2000/svg">
<path d="M12 6H16V10H12C10.9391 10 9.92172 10.4214 9.17157 11.1716C8.42143 11.9217 8 12.9391 8 14V56C8 57.0609 8.42143 58.0783 9.17157 58.8284C9.92172 59.5786 10.9391 60 12 60H52C53.0609 60 54.0783 59.5786 54.8284 58.8284C55.5786 58.0783 56 57.0609 56 56V46L60 42.5V56C60 58.1217 59.1571 60.1566 57.6569 61.6569C56.1566 63.1571 54.1217 64 52 64H12C9.87827 64 7.84344 63.1571 6.34315 61.6569C4.84285 60.1566 4 58.1217 4 56V14C4 11.8783 4.84285 9.84344 6.34315 8.34315C7.84344 6.84285 9.87827 6 12 6Z" fill="url(#paint0_linear_211_152)"/>
<path d="M57.6569 8.34315C59.1571 9.84344 60 11.8783 60 14V25.5L56 30V14C56 12.9391 55.5786 11.9217 54.8284 11.1716C54.0783 10.4214 53.0609 10 52 10H48V6H52C54.1217 6 56.1566 6.84285 57.6569 8.34315Z" fill="url(#paint1_linear_211_152)"/>
<path d="M38 4C38.5304 4 39.0391 4.21071 39.4142 4.58579C39.7893 4.96086 40 5.46957 40 6V10C40 10.5304 39.7893 11.0391 39.4142 11.4142C39.0391 11.7893 38.5304 12 38 12H26C25.4696 12 24.9609 11.7893 24.5858 11.4142C24.2107 11.0391 24 10.5304 24 10V6C24 5.46957 24.2107 4.96086 24.5858 4.58579C24.9609 4.21071 25.4696 4 26 4H38ZM26 0C24.4087 0 22.8826 0.632141 21.7574 1.75736C20.6321 2.88258 20 4.4087 20 6V10C20 11.5913 20.6321 13.1174 21.7574 14.2426C22.8826 15.3679 24.4087 16 26 16H38C39.5913 16 41.1174 15.3679 42.2426 14.2426C43.3679 13.1174 44 11.5913 44 10V6C44 4.4087 43.3679 2.88258 42.2426 1.75736C41.1174 0.632141 39.5913 0 38 0L26 0Z" fill="url(#paint2_linear_211_152)"/>
<g clip-path="url(#clip0_211_152)">
<path d="M75.4019 8.40152C75.5297 8.27347 75.6814 8.17187 75.8485 8.10256C76.0155 8.03324 76.1946 7.99756 76.3754 7.99756C76.5563 7.99756 76.7354 8.03324 76.9024 8.10256C77.0695 8.17187 77.2212 8.27347 77.3489 8.40152L85.5989 16.6515C85.727 16.7792 85.8286 16.931 85.8979 17.098C85.9672 17.2651 86.0029 17.4442 86.0029 17.625C86.0029 17.8059 85.9672 17.985 85.8979 18.152C85.8286 18.3191 85.727 18.4708 85.5989 18.5985L58.0989 46.0985C57.967 46.2295 57.8098 46.3325 57.6369 46.401L43.8869 51.901C43.6371 52.001 43.3633 52.0255 43.0997 51.9714C42.836 51.9173 42.594 51.7871 42.4037 51.5967C42.2134 51.4064 42.0831 51.1644 42.029 50.9008C41.9749 50.6371 41.9994 50.3634 42.0994 50.1135L47.5994 36.3635C47.668 36.1906 47.7709 36.0335 47.9019 35.9015L75.4019 8.40152ZM72.8197 14.875L79.1254 21.1808L82.6812 17.625L76.3754 11.3193L72.8197 14.875ZM77.1812 23.125L70.8754 16.8193L53.0004 34.6943V35.5H54.3754C54.7401 35.5 55.0899 35.6449 55.3477 35.9027C55.6056 36.1606 55.7504 36.5103 55.7504 36.875V38.25H57.1254C57.4901 38.25 57.8399 38.3949 58.0977 38.6527C58.3556 38.9106 58.5004 39.2603 58.5004 39.625V41H59.3062L77.1812 23.125ZM50.3384 37.3563L50.0469 37.6478L45.8449 48.1555L56.3527 43.9535L56.6442 43.662C56.3819 43.564 56.1558 43.3883 55.9961 43.1583C55.8363 42.9283 55.7507 42.655 55.7504 42.375V41H54.3754C54.0108 41 53.661 40.8551 53.4032 40.5973C53.1453 40.3394 53.0004 39.9897 53.0004 39.625V38.25H51.6254C51.3454 38.2498 51.0722 38.1641 50.8422 38.0044C50.6122 37.8447 50.4364 37.6186 50.3384 37.3563Z" fill="url(#paint3_linear_211_152)"/>
</g>
<defs>
<linearGradient id="paint0_linear_211_152" x1="32" y1="6" x2="32" y2="64" gradientUnits="userSpaceOnUse">
<stop stop-color="#FFD541"/>
<stop offset="1" stop-color="#F7F3AD"/>
</linearGradient>
<linearGradient id="paint1_linear_211_152" x1="32" y1="6" x2="32" y2="64" gradientUnits="userSpaceOnUse">
<stop stop-color="#FFD541"/>
<stop offset="1" stop-color="#F7F3AD"/>
</linearGradient>
<linearGradient id="paint2_linear_211_152" x1="32" y1="0" x2="32" y2="16" gradientUnits="userSpaceOnUse">
<stop/>
<stop offset="0.0001" stop-color="#FFD541"/>
<stop offset="1" stop-color="#F7F3AD"/>
</linearGradient>
<linearGradient id="paint3_linear_211_152" x1="64.0019" y1="7.99756" x2="64.0019" y2="51.9995" gradientUnits="userSpaceOnUse">
<stop stop-color="#FFD541"/>
<stop offset="1" stop-color="#F7F3AD"/>
</linearGradient>
<clipPath id="clip0_211_152">
<rect width="44" height="44" fill="white" transform="translate(42 8)"/>
</clipPath>
</defs>
</svg>
