<svg width="76" height="66" viewBox="0 0 76 66" fill="none" xmlns="http://www.w3.org/2000/svg">
<path d="M71.25 57C71.25 57 76 57 76 52.25C76 47.5 71.25 33.25 52.25 33.25C33.25 33.25 28.5 47.5 28.5 52.25C28.5 57 33.25 57 33.25 57H71.25ZM33.3545 52.25C33.3194 52.2452 33.2845 52.2388 33.25 52.231C33.2547 50.977 34.0433 47.3385 36.86 44.061C39.482 40.9878 44.0895 38 52.25 38C60.4058 38 65.0133 40.9925 67.64 44.061C70.4567 47.3385 71.2405 50.9818 71.25 52.231L71.212 52.2405C71.1899 52.2442 71.1677 52.2474 71.1455 52.25H33.3545ZM52.25 23.75C54.7696 23.75 57.1859 22.7491 58.9675 20.9675C60.7491 19.1859 61.75 16.7696 61.75 14.25C61.75 11.7304 60.7491 9.31408 58.9675 7.53249C57.1859 5.75089 54.7696 4.75 52.25 4.75C49.7304 4.75 47.3141 5.75089 45.5325 7.53249C43.7509 9.31408 42.75 11.7304 42.75 14.25C42.75 16.7696 43.7509 19.1859 45.5325 20.9675C47.3141 22.7491 49.7304 23.75 52.25 23.75ZM66.5 14.25C66.5 16.1213 66.1314 17.9743 65.4153 19.7032C64.6992 21.4321 63.6495 23.003 62.3263 24.3263C61.003 25.6495 59.4321 26.6992 57.7032 27.4153C55.9743 28.1314 54.1213 28.5 52.25 28.5C50.3787 28.5 48.5257 28.1314 46.7968 27.4153C45.0679 26.6992 43.497 25.6495 42.1737 24.3263C40.8505 23.003 39.8008 21.4321 39.0847 19.7032C38.3686 17.9743 38 16.1213 38 14.25C38 10.4707 39.5013 6.84612 42.1737 4.17373C44.8461 1.50134 48.4707 0 52.25 0C56.0293 0 59.6539 1.50134 62.3263 4.17373C64.9987 6.84612 66.5 10.4707 66.5 14.25ZM32.946 34.58C31.0459 33.9817 29.0873 33.5884 27.1035 33.4067C25.9888 33.3008 24.8697 33.2484 23.75 33.25C4.75 33.25 0 47.5 0 52.25C0 55.4183 1.58175 57 4.75 57H24.776C24.0718 55.5171 23.7207 53.8913 23.75 52.25C23.75 47.4525 25.5408 42.5505 28.9275 38.456C30.0818 37.0595 31.426 35.7533 32.946 34.58ZM23.37 38C20.5587 42.224 19.0401 47.1761 19 52.25H4.75C4.75 51.015 5.529 47.3575 8.36 44.061C10.9488 41.04 15.447 38.095 23.37 38.0048V38ZM7.125 16.625C7.125 12.8457 8.62634 9.22112 11.2987 6.54873C13.9711 3.87634 17.5957 2.375 21.375 2.375C25.1543 2.375 28.7789 3.87634 31.4513 6.54873C34.1237 9.22112 35.625 12.8457 35.625 16.625C35.625 20.4043 34.1237 24.0289 31.4513 26.7013C28.7789 29.3737 25.1543 30.875 21.375 30.875C17.5957 30.875 13.9711 29.3737 11.2987 26.7013C8.62634 24.0289 7.125 20.4043 7.125 16.625ZM21.375 7.125C18.8554 7.125 16.4391 8.12589 14.6575 9.90749C12.8759 11.6891 11.875 14.1054 11.875 16.625C11.875 19.1446 12.8759 21.5609 14.6575 23.3425C16.4391 25.1241 18.8554 26.125 21.375 26.125C23.8946 26.125 26.3109 25.1241 28.0925 23.3425C29.8741 21.5609 30.875 19.1446 30.875 16.625C30.875 14.1054 29.8741 11.6891 28.0925 9.90749C26.3109 8.12589 23.8946 7.125 21.375 7.125Z" fill="url(#paint0_linear_115_402)"/>
<defs>
<linearGradient id="paint0_linear_115_402" x1="38" y1="0" x2="38" y2="57" gradientUnits="userSpaceOnUse">
<stop stop-color="#FFD541"/>
<stop offset="1" stop-color="#F7F3AD"/>
</linearGradient>
</defs>
</svg>
