<svg width="26" height="26" viewBox="0 0 26 26" fill="none" xmlns="http://www.w3.org/2000/svg">
<path d="M3.21465 0.799848C0.313566 3.99278 0.531263 8.56155 1.5005 10.5C2.50051 12.5 12.5005 23 15.0005 24.5C17.5005 26 23.5005 25 24.5005 24.5C25.2037 24.1484 25.4433 22.2259 25.491 20.9735C25.5024 20.6737 25.3659 20.3899 25.1338 20.1999L20.8269 16.6761C20.3795 16.3101 19.7223 16.4092 19.3123 16.8166C17.4592 18.6577 15.3885 18.092 14.5005 17.5C13.1672 16.3333 10.1005 13.5 8.50051 11.5C7.2049 9.88048 8.4447 7.9331 9.67127 6.71981C10.0904 6.30525 10.1577 5.62295 9.76121 5.18676L5.79808 0.827327C5.60856 0.618853 5.33989 0.5 5.05814 0.5H3.91471C3.6495 0.5 3.393 0.603555 3.21465 0.799848Z" fill="white" stroke="white" stroke-linejoin="round"/>
</svg>
