<svg width="61" height="58" viewBox="0 0 61 58" fill="none" xmlns="http://www.w3.org/2000/svg">
<path d="M10.2099 42.3459C10.6056 42.7431 10.9088 43.2228 11.098 43.7506C11.2871 44.2785 11.3575 44.8415 11.3041 45.3997C11.0361 47.983 10.5281 50.5356 9.78669 53.0247C15.1051 51.7932 18.3534 50.3674 19.8288 49.6201C20.6657 49.1963 21.6294 49.0958 22.5357 49.338C25.1337 50.0306 27.8113 50.3793 30.5 50.375C45.7348 50.375 57.1875 39.6733 57.1875 27.5C57.1875 15.3305 45.7348 4.625 30.5 4.625C15.2652 4.625 3.8125 15.3305 3.8125 27.5C3.8125 33.0968 6.16481 38.2894 10.2099 42.3459ZM8.33031 57.2337C7.42701 57.4128 6.52078 57.5767 5.612 57.7255C4.8495 57.8475 4.27 57.0545 4.57119 56.3454C4.90971 55.547 5.21998 54.737 5.50144 53.9168L5.51287 53.8787C6.45837 51.1337 7.2285 47.9769 7.51063 45.0375C2.83269 40.3481 0 34.21 0 27.5C0 12.7609 13.6564 0.8125 30.5 0.8125C47.3436 0.8125 61 12.7609 61 27.5C61 42.2391 47.3436 54.1875 30.5 54.1875C27.4792 54.1916 24.4709 53.7994 21.5521 53.0209C19.5696 54.0236 15.3034 55.8497 8.33031 57.2337V57.2337Z" fill="url(#paint0_linear_115_392)"/>
<defs>
<linearGradient id="paint0_linear_115_392" x1="30.5" y1="0.8125" x2="30.5" y2="57.738" gradientUnits="userSpaceOnUse">
<stop stop-color="#FFD541"/>
<stop offset="1" stop-color="#F7F3AD"/>
</linearGradient>
</defs>
</svg>
