<svg width="67" height="67" viewBox="0 0 67 67" fill="none" xmlns="http://www.w3.org/2000/svg">
<path d="M66.3764 0.619392C66.6717 0.915203 66.8736 1.29127 66.9571 1.70087C67.0405 2.11048 67.0018 2.53557 66.8457 2.92334L42.0216 64.9892C41.8028 65.5358 41.4375 66.0114 40.9659 66.3638C40.4942 66.7161 39.9346 66.9315 39.3484 66.9862C38.7623 67.0409 38.1724 66.9328 37.6438 66.6738C37.1151 66.4148 36.6681 66.015 36.352 65.5183L22.7945 44.2067L1.48567 30.6475C0.987895 30.3318 0.587031 29.8846 0.327307 29.3553C0.067583 28.8261 -0.0409038 28.2354 0.0138173 27.6484C0.0685384 27.0614 0.28434 26.5009 0.63741 26.0288C0.99048 25.5567 1.46709 25.1913 2.01465 24.973L64.0728 0.154336C64.4605 -0.00176865 64.8855 -0.040508 65.2951 0.0429299C65.7046 0.126368 66.0806 0.328306 66.3764 0.623659V0.619392ZM27.0521 42.9609L38.8306 61.4693L59.0218 10.9872L27.0521 42.9609ZM56.0057 7.9707L5.52987 28.1644L24.0402 39.9402L56.0099 7.9707H56.0057Z" fill="url(#paint0_linear_115_649)"/>
<defs>
<linearGradient id="paint0_linear_115_649" x1="33.5" y1="0" x2="33.5" y2="67" gradientUnits="userSpaceOnUse">
<stop stop-color="#FFD541"/>
<stop offset="1" stop-color="#F7F3AD"/>
</linearGradient>
</defs>
</svg>
