<svg width="45" height="25" viewBox="0 0 45 25" fill="none" xmlns="http://www.w3.org/2000/svg">
<path fill-rule="evenodd" clip-rule="evenodd" d="M22.0216 24.8921H24.7113C24.7113 24.8921 25.5221 24.805 25.9387 24.3691C26.3553 23.9332 26.3078 23.2194 26.3078 23.2194C26.3078 23.2194 26.2547 19.7024 27.9294 19.1848C29.6042 18.6672 31.7012 22.582 33.9464 24.0885C35.6463 25.2272 36.938 24.9766 36.938 24.9766L42.9465 24.8949C42.9465 24.8949 46.0892 24.7069 44.5989 22.2986C44.4759 22.1025 43.7294 20.517 40.1254 17.2615C36.3565 13.8562 36.8625 14.4065 41.4004 8.51396C44.1656 4.9234 45.27 2.73311 44.9233 1.79324C44.5962 0.899689 42.5607 1.1367 42.5607 1.1367L35.7973 1.17756C35.4977 1.1419 35.194 1.19407 34.9249 1.32739C34.6677 1.51088 34.4619 1.75445 34.3266 2.0357C33.6256 3.80562 32.7901 5.52212 31.827 7.1709C28.8158 12.1563 27.6107 12.4178 27.1186 12.11C25.9723 11.388 26.2603 9.21137 26.2603 7.66672C26.2603 2.8339 27.0124 0.820685 24.7952 0.311251C24.0598 0.136899 23.5174 0.0388276 21.6385 0.00613662C19.2228 -0.0183816 17.1818 0.00613665 16.0243 0.550986C15.2554 0.918759 14.6598 1.73603 15.0233 1.78234C15.4707 1.84228 16.4828 2.05477 17.0196 2.76035C17.713 3.68114 17.6879 5.7434 17.6879 5.7434C17.6879 5.7434 18.0877 11.4289 16.7568 12.1372C15.8453 12.6194 14.5955 11.6305 11.9086 7.10824C10.9975 5.53597 10.1915 3.90803 9.4957 2.23457C9.37136 1.9499 9.17976 1.69787 8.93651 1.49902C8.62169 1.29576 8.26787 1.15675 7.8964 1.09038L1.4657 1.13125C1.4657 1.13125 0.501103 1.15576 0.146016 1.56712C-0.167131 1.92945 0.120845 2.68134 0.120845 2.68134C0.120845 2.68134 5.15357 14.1559 10.8545 19.9367C16.0802 25.2381 22.0132 24.8894 22.0132 24.8894L22.0216 24.8921Z" fill="white"/>
</svg>
